<?xml version="1.0" encoding="UTF-8" standalone="no"?>
<!-- Created with Inkscape (http://www.inkscape.org/) -->

<svg
   xmlns:dc="http://purl.org/dc/elements/1.1/"
   xmlns:cc="http://creativecommons.org/ns#"
   xmlns:rdf="http://www.w3.org/1999/02/22-rdf-syntax-ns#"
   xmlns:svg="http://www.w3.org/2000/svg"
   xmlns="http://www.w3.org/2000/svg"
   version="1.0"
   width="512"
   height="512"
   id="svg2">
  <metadata
     id="metadata10">
    <rdf:RDF>
      <cc:Work
         rdf:about="">
        <dc:format>image/svg+xml</dc:format>
        <dc:type
           rdf:resource="http://purl.org/dc/dcmitype/StillImage" />
        <dc:title></dc:title>
      </cc:Work>
    </rdf:RDF>
  </metadata>
  <defs
     id="defs8" />
  <g
     transform="matrix(1.3430907,0,0,-1.3430907,-87.831217,555.71557)"
     id="g2987">
    <path
       d="m 256,60 c -13.6099,0 -26.89051,1.390584 -39.71875,4.03125 l -11.1875,30.15625 -36.5625,98.4375 41.125,23.75 C 220.84423,203.30103 237.44332,195 256,195 c 18.55668,0 35.15577,8.30103 46.34375,21.375 l 41.125,-23.75 -36.5625,-98.4375 -11.1875,-30.15625 C 282.89051,61.390584 269.6099,60 256,60 z"
       id="path3761"
       style="fill:#000000;fill-opacity:1;fill-rule:evenodd;stroke:none" />
    <path
       d="m 384.49068,202.58322 a 180.66852,181.72096 0 1 1 -361.337039,0 180.66852,181.72096 0 1 1 361.337039,0 z"
       transform="matrix(0.22693494,0,0,0.22562064,209.74563,210.29304)"
       id="path3787"
       style="fill:#000000;fill-opacity:1;fill-rule:evenodd;stroke:none" />
    <path
       d="m 425.76963,353.92545 c 6.80495,-11.78652 12.24098,-23.98316 16.36821,-36.41307 l -20.52233,-24.7668 -66.96812,-80.8828 -41.13061,23.74029 c 5.7284,16.22606 4.61776,34.75181 -4.66058,50.82237 -9.27834,16.07056 -24.76679,26.29527 -41.68317,29.44736 l 0.006,47.4903 103.53062,17.5547 31.70983,5.38946 c 8.70101,-9.78925 16.54559,-20.5953 23.35054,-32.38182 z"
       id="path3809"
       style="fill:#000000;fill-opacity:1;fill-rule:evenodd;stroke:none" />
    <path
       d="m 86.230166,353.92528 c 6.80495,11.78652 14.649534,22.59258 23.350534,32.38182 l 31.70983,-5.38946 103.53062,-17.5547 0.006,-47.4903 c -16.91638,-3.15209 -32.40483,-13.3768 -41.68317,-29.44736 -9.27834,-16.07056 -10.38898,-34.59631 -4.66058,-50.82237 l -41.1308,-23.73995 -66.968124,80.8828 -20.52232,24.76679 c 4.12723,12.42992 9.56325,24.62655 16.36821,36.41307 z"
       id="path3811"
       style="fill:#000000;fill-opacity:1;fill-rule:evenodd;stroke:none" />
  </g>
</svg>
